<?xml version="1.0" encoding="UTF-8" standalone="no"?>
<!-- Created with Inkscape (http://www.inkscape.org/) -->

<svg
   version="1.1"
   id="svg1"
   width="1024"
   height="1024"
   viewBox="0 0 1024 1024"
   xmlns="http://www.w3.org/2000/svg"
   xmlns:svg="http://www.w3.org/2000/svg">
  <defs
     id="defs1" />
  <g
     id="g1">
    <path
       style="fill:#00ffff"
       d="m 217.1594,875.58654 c -6.25019,-3.81064 -7.59843,-18.13711 -3.57368,-37.97437 0.40751,-2.00857 -1.02834,-0.99844 -7.30446,5.13876 -12.96155,12.67463 -24.18184,13.59624 -28.87186,2.37146 -3.36864,-8.06231 -2.13467,-11.05022 9.39971,-22.76022 l 8.61877,-8.75 -18.47915,-0.004 c -21.57573,-0.004 -23.61368,-0.65514 -27.16044,-8.6732 -3.95241,-8.93507 -4.93849,-7.57462 37.20032,-51.32306 12.97921,-13.475 26.04098,-27.13095 29.02614,-30.34655 7.95385,-8.56785 6.63269,-8.2567 41.20161,-9.70331 l 30.74677,-1.28666 38.27366,-38.58174 c 21.0505,-21.21996 55.13945,-55.63142 75.75321,-76.46992 20.61376,-20.8385 38.49207,-38.80715 39.72957,-39.93034 2.83913,-2.57686 2.82372,-2.81374 -0.5,-7.68614 -3.32626,-4.87612 -2.83125,-4.89917 -27.6755,1.28893 l -16.9255,4.21599 -14.0745,27.59874 c -20.25776,39.72352 -21.16524,40.90126 -31.51547,40.90126 -20.36997,0 -18.45873,-16.04387 6.71792,-56.39362 l 2.42947,-3.89362 -2.35321,0.68326 c -1.29427,0.37579 -12.70321,3.14305 -25.3532,6.14946 -27.98728,6.65149 -24.23967,4.26274 -32.87467,20.95452 -35.17762,67.99969 -35.04445,67.83167 -48.90198,61.70182 -13.16932,-5.82541 -12.20719,-12.23899 7.13434,-47.55783 6.87797,-12.55962 6.97806,-12.84474 4.3413,-12.36689 -1.48445,0.26902 -13.94674,3.24144 -27.694,6.60536 -30.2052,7.39116 -34.41639,7.09202 -39.46465,-2.80339 -7.50552,-14.71203 -1.43362,-20.02654 32.29542,-28.26699 13.29033,-3.247 25.89539,-6.36213 28.01123,-6.92252 l 3.84699,-1.01888 -20.71521,-12.18534 c -29.29173,-17.23032 -33.0792,-21.57893 -28.47518,-32.69401 4.92128,-11.88101 13.92252,-11.73229 35.49641,0.58649 8.25,4.71078 17.33891,9.88332 20.19758,11.49453 4.62553,2.60704 23.47478,13.60559 30.4242,17.75252 2.39499,1.42917 3.25999,1.40956 10,-0.22667 4.05802,-0.98515 17.05322,-4.11492 28.87822,-6.95504 24.81472,-5.96 24.21223,-5.35792 13.06305,-13.05435 -29.07267,-20.06924 -51.32509,-36.12376 -52.61749,-37.9621 -9.10341,-12.94882 4.29612,-29.33429 18.69175,-22.85701 3.38399,1.52262 61.00964,41.9625 78.60123,55.15989 l 3.23854,2.42959 15.76146,-3.69467 c 8.6688,-2.03206 17.17635,-3.95961 18.90567,-4.28343 2.8036,-0.52499 3.3556,-1.23346 5.09535,-6.53972 l 1.95113,-5.95095 -5.09535,-4.29195 c -2.80244,-2.36057 -12.74535,-10.31993 -22.09535,-17.68745 -9.35,-7.36753 -31.68644,-25.1375 -49.63652,-39.48883 l -32.63652,-26.09332 -11.86347,2.27723 c -13.46855,2.58533 -56.36566,10.23448 -75.93252,13.53983 l -13.06904,2.2077 -4.64325,-2.24776 c -8.54237,-4.1353 -11.74404,-13.10564 -7.50538,-21.02841 3.94714,-7.37787 4.59915,-7.57511 53.28671,-16.11951 13.2,-2.31652 24.57801,-4.37156 25.28446,-4.56674 0.70645,-0.19518 -12.20489,-10.51694 -28.69187,-22.93724 -35.94947,-27.08216 -37.5786,-29.15265 -31.84259,-40.46919 8.28139,-16.33831 14.00295,-13.87293 72.5,31.23975 3.4375,2.65099 6.25,4.43286 6.25,3.95972 0,-0.47315 -2.025,-14.95605 -4.5,-32.18424 -5.09346,-35.45498 -5.20387,-37.20664 -2.64839,-42.0156 5.67497,-10.67927 21.24378,-10.83418 27.41199,-0.27275 2.02441,3.46626 3.02745,9.3365 7.73833,45.28835 6.6236,50.54913 7.91613,58.40438 9.87265,60 1.96714,1.60429 18.97293,14.99839 66.12541,52.0817 16.225,12.76023 32.73068,25.8418 36.67929,29.07014 6.62951,5.42022 7.37616,5.78002 9.75,4.69842 l 2.57071,-1.17129 v -26.22405 -26.22404 l -30.75,-30.26251 c -34.39229,-33.84706 -33.16599,-32.36502 -33.21456,-40.14164 -0.0557,-8.9183 6.06117,-14.82673 15.3498,-14.82673 7.39679,0 9.21712,1.3194 29.30838,21.24307 l 19.30638,19.14534 v -26.59814 -26.59815 l -36.46221,-35.71654 c -39.00063,-38.20304 -39.33807,-38.62025 -38.16404,-47.1857 1.41639,-10.33371 11.29689,-16.00336 21.31115,-12.22882 1.54831,0.58358 14.07655,12.28358 27.84054,26 13.76399,13.71642 25.23899,24.9391 25.5,24.93929 0.26101,1.9e-4 0.35284,-17.88731 0.20406,-39.75 -0.26952,-39.60682 -0.2623,-39.76652 2,-44.22747 5.39666,-10.6415 20.91534,-11.31987 27.8406,-1.21699 l 2.4299,3.54485 0.28184,41.32463 c 0.15501,22.72855 0.39823,41.32463 0.54048,41.32463 0.14225,0 11.94042,-11.66263 26.21816,-25.91696 22.42405,-22.38729 26.54035,-26.07026 30.22434,-27.04254 8.7239,-2.30241 16.89597,2.27235 19.17444,10.73394 2.30871,8.5739 2.49741,8.33215 -38.41878,49.22056 l -37.52048,37.495 v 26.47284 26.47285 l 20.25,-20.12389 c 16.49827,-16.39553 21.01953,-20.35054 24.40354,-21.34723 13.49775,-3.97549 25.42242,9.47239 19.09617,21.53543 -0.86531,1.65 -15.57085,16.90035 -32.67896,33.88966 l -31.10567,30.88967 0.26746,23.91229 0.26746,23.91229 5.97957,2.42972 c 3.28877,1.33634 7.23884,3.36073 8.77795,4.49864 2.76223,2.04221 2.82973,2.04426 5.2267,0.1588 6.83843,-5.37911 59.68288,-56.48807 112.99935,-109.2883 32.99096,-32.67152 72.70346,-71.97632 88.25,-87.34399 33.00977,-32.62999 30.69919,-28.66685 18.01643,-30.90207 -24.33301,-4.28847 -28.75,-6.39183 -28.75,-13.69065 0,-4.94348 1.96052,-6.70834 15.30569,-13.77813 32.62265,-17.28233 74.32026,-42.68861 107.48294,-65.48919 8.80897,-6.05649 12.0458,-6.86996 17.04639,-4.28405 7.91769,4.09439 7.35516,8.92198 -4.78748,41.08531 -5.60632,14.85 -15.28088,40.725 -21.49901,57.5 -20.80754,56.13371 -21.65504,58.15516 -25.45533,60.71618 -11.83366,7.9747 -18.69812,-1.73469 -23.68764,-33.50485 -0.88237,-5.61834 5.88617,-11.68234 -64.5481,57.82927 -84.19286,83.08997 -136.68457,133.9969 -167.47887,162.42249 -5.26991,4.86455 -5.05222,7.94564 0.50512,7.14939 1.98896,-0.28498 15.31629,-1.27404 29.61629,-2.19792 24.51141,-1.58359 26.11451,-1.80707 28,-3.90335 1.1,-1.22298 12.00235,-14.17221 24.22743,-28.77608 26.33613,-31.46064 31.03077,-34.53241 41.18733,-26.94945 12.48034,9.31792 10.36716,14.39742 -20.90265,50.24398 l -5.48789,6.29112 4.99844,-0.66307 c 2.74914,-0.36469 9.94369,-1.10848 15.98789,-1.65288 23.4236,-2.10976 16.12439,4.06949 54.98945,-46.55209 32.6835,-42.57013 31.58549,-41.38615 39.75235,-42.86485 10.15374,-1.83844 19.77905,8.68853 16.85821,18.43742 -1.04284,3.48069 -32.95433,46.71194 -44.85336,60.76389 l -4.47883,5.28921 6.36081,-0.56368 c 3.49845,-0.31002 17.61082,-1.48399 31.36082,-2.60881 13.75,-1.12482 29.00612,-2.40859 33.90248,-2.85282 16.63965,-1.50965 25.48077,5.09476 23.18712,17.321 -2.18391,11.64123 -6.54119,12.68993 -74.0896,17.83166 -8.25,0.62798 -15.15114,1.25223 -15.33586,1.38721 -0.18473,0.13498 10.24761,10.74428 23.18297,23.57623 31.59972,31.34709 34.85698,39.0747 20.04879,47.56435 -10.0827,5.78049 -11.77523,4.63037 -50.59188,-34.37872 l -33.69599,-33.86304 -22.30401,1.40726 c -12.26721,0.77399 -22.413,1.48482 -22.5462,1.57962 -0.1332,0.0948 7.41965,7.78634 16.78412,17.09232 26.0512,25.88851 29.10288,35.46338 13.55352,42.52513 -10.00323,4.54298 -11.03078,3.86693 -43.72795,-28.76922 l -28.6325,-28.57906 -33.32618,2.16809 c -18.3294,1.19245 -33.37597,2.26168 -33.43683,2.37608 -0.0609,0.11439 -1.13095,1.98729 -2.37797,4.16199 l -2.26731,3.95401 17.33664,17.06725 c 9.53515,9.38699 29.75295,29.24955 44.92845,44.13903 l 27.5918,27.07177 7.9082,0.6387 c 4.3495,0.35129 17.80819,1.33668 29.90819,2.18975 55.26339,3.89617 57.13328,4.09573 61.04774,6.51499 14.25832,8.81213 7.62725,27.9705 -9.68112,27.9705 -8.21736,0 -49.33244,-2.79767 -52.86457,-3.59716 -1.37387,-0.31097 -2.27387,-0.33384 -2,-0.0508 0.27387,0.28303 11.80392,11.90711 25.62233,25.83129 13.8184,13.92417 26.3059,27.06698 27.75,29.20623 8.71113,12.9045 -4.17481,28.1514 -19.05928,22.5513 -1.54831,-0.58253 -15.79983,-13.97003 -31.67006,-29.75 l -28.85497,-28.69086 0.6203,5.5 c 5.37628,47.67018 5.24778,65.58553 -0.50516,70.4263 -12.42403,10.45414 -23.42981,0.22063 -24.97807,-23.22534 -0.53393,-8.08553 -2.08566,-29.99883 -3.4483,-48.69622 l -2.47751,-33.99526 -45.1172,-45.12537 -45.1172,-45.12538 -3.38347,1.03842 -3.38346,1.03841 v 29.68425 29.68425 l 31.05232,30.2988 c 36.20742,35.32881 37.08428,36.58499 32.41146,46.43223 -6.76175,14.24932 -15.96886,11.16097 -42.28915,-14.18509 -10.99445,-10.5875 -20.25647,-19.25 -20.58227,-19.25 -0.3258,0 -0.57642,11.8125 -0.55694,26.25 l 0.0354,26.25 20.52074,19.5 c 11.28641,10.725 27.58297,26.12562 36.21458,34.22361 21.9551,20.59779 24.22588,26.84008 13.15302,36.15727 -8.83873,7.43731 -14.38113,4.69341 -40.45919,-20.03028 -11,-10.42871 -22.1375,-20.9062 -24.75,-23.28331 l -4.74997,-4.32201 v 37.97948 c 0,37.73992 -0.0142,38.00033 -2.25,41.28541 -6.26715,9.20835 -16.81707,11.01149 -24.85492,4.24809 -5.80091,-4.88114 -5.89508,-5.62314 -5.89508,-46.45055 v -37.25653 l -25.75,25.64863 c -30.11065,29.99211 -33.23813,31.65822 -42.34036,22.55598 -10.98383,-10.98383 -9.03481,-14.28332 33.52248,-56.75035 l 34.56788,-34.49457 V 697.46997 671.8169 l -19.65107,19.87262 c -24.4902,24.76632 -29.88256,27.30836 -38.58294,18.1886 -9.92297,-10.40129 -8.11446,-13.57216 28.66577,-50.25959 l 29.56824,-29.49365 v -25.75635 c 0,-14.166 -0.12777,-25.75636 -0.28393,-25.75636 -0.15616,0 -15.79366,15.63594 -34.75,34.74654 -18.95634,19.11059 -53.78693,54.18841 -77.40131,77.95069 l -42.93522,43.20415 -1.76452,19.29931 c -0.97049,10.61462 -2.46113,26.04931 -3.31254,34.29931 -0.85141,8.25 -1.54901,15.40913 -1.55024,15.90919 -0.003,1.2717 -65.63025,67.18612 -70.40227,70.71046 -4.76181,3.5168 -10.51995,3.83618 -15.41014,0.85472 z m 52.37949,-89.86446 0.70616,-11.3901 -11.44652,11.3901 c -6.29558,6.26455 -12.05453,12.19792 -12.79767,13.18527 -1.15844,1.53913 -3.83567,17.13406 -3.98286,23.20027 -0.0338,1.39469 3.9954,-2.06759 13.38316,-11.5 l 13.43158,-13.49545 z m -48.06931,-4.96299 c 0.55,-0.3558 8.2,-8.02081 17,-17.03335 l 16,-16.38643 -4,0.62542 c -2.2,0.34399 -6.53531,0.63038 -9.63402,0.63643 l -5.63402,0.011 -14.03825,14.25 c -7.72103,7.8375 -14.91765,15.375 -15.99248,16.75 l -1.95423,2.5 8.6265,-0.35308 c 4.74457,-0.19419 9.0765,-0.64419 9.6265,-1 z M 494.2368,539.00835 c 12.88143,-6.52429 14.50878,-22.36156 3.30826,-32.19575 -7.29552,-6.40556 -16.81406,-6.51996 -24.57549,-0.29536 -18.28991,14.66836 0.32045,43.10041 21.26723,32.49111 z"
       id="path1" />
  </g>
</svg>
